<svg width="29" height="28" viewBox="0 0 29 28" fill="none" xmlns="http://www.w3.org/2000/svg">
<path d="M10.5 16C10.5 16 12 18 14.5 18C17 18 18.5 16 18.5 16M17.5 11H17.51M11.5 11H11.51M24.5 14C24.5 19.5228 20.0228 24 14.5 24C8.97715 24 4.5 19.5228 4.5 14C4.5 8.47715 8.97715 4 14.5 4C20.0228 4 24.5 8.47715 24.5 14ZM18 11C18 11.2761 17.7761 11.5 17.5 11.5C17.2239 11.5 17 11.2761 17 11C17 10.7239 17.2239 10.5 17.5 10.5C17.7761 10.5 18 10.7239 18 11ZM12 11C12 11.2761 11.7761 11.5 11.5 11.5C11.2239 11.5 11 11.2761 11 11C11 10.7239 11.2239 10.5 11.5 10.5C11.7761 10.5 12 10.7239 12 11Z" stroke="#111111" stroke-width="1.5" stroke-linecap="round" stroke-linejoin="round"/>
</svg>
