<svg width="29" height="28" viewBox="0 0 29 28" fill="none" xmlns="http://www.w3.org/2000/svg">
<path d="M10.9 5H7.1C6.53995 5 6.25992 5 6.04601 5.10899C5.85785 5.20487 5.70487 5.35785 5.60899 5.54601C5.5 5.75992 5.5 6.03995 5.5 6.6V10.4C5.5 10.9601 5.5 11.2401 5.60899 11.454C5.70487 11.6422 5.85785 11.7951 6.04601 11.891C6.25992 12 6.53995 12 7.1 12H10.9C11.4601 12 11.7401 12 11.954 11.891C12.1422 11.7951 12.2951 11.6422 12.391 11.454C12.5 11.2401 12.5 10.9601 12.5 10.4V6.6C12.5 6.03995 12.5 5.75992 12.391 5.54601C12.2951 5.35785 12.1422 5.20487 11.954 5.10899C11.7401 5 11.4601 5 10.9 5Z" stroke="#111111" stroke-width="1.5" stroke-linecap="round" stroke-linejoin="round"/>
<path d="M21.9 5H18.1C17.5399 5 17.2599 5 17.046 5.10899C16.8578 5.20487 16.7049 5.35785 16.609 5.54601C16.5 5.75992 16.5 6.03995 16.5 6.6V10.4C16.5 10.9601 16.5 11.2401 16.609 11.454C16.7049 11.6422 16.8578 11.7951 17.046 11.891C17.2599 12 17.5399 12 18.1 12H21.9C22.4601 12 22.7401 12 22.954 11.891C23.1422 11.7951 23.2951 11.6422 23.391 11.454C23.5 11.2401 23.5 10.9601 23.5 10.4V6.6C23.5 6.03995 23.5 5.75992 23.391 5.54601C23.2951 5.35785 23.1422 5.20487 22.954 5.10899C22.7401 5 22.4601 5 21.9 5Z" stroke="#111111" stroke-width="1.5" stroke-linecap="round" stroke-linejoin="round"/>
<path d="M21.9 16H18.1C17.5399 16 17.2599 16 17.046 16.109C16.8578 16.2049 16.7049 16.3578 16.609 16.546C16.5 16.7599 16.5 17.0399 16.5 17.6V21.4C16.5 21.9601 16.5 22.2401 16.609 22.454C16.7049 22.6422 16.8578 22.7951 17.046 22.891C17.2599 23 17.5399 23 18.1 23H21.9C22.4601 23 22.7401 23 22.954 22.891C23.1422 22.7951 23.2951 22.6422 23.391 22.454C23.5 22.2401 23.5 21.9601 23.5 21.4V17.6C23.5 17.0399 23.5 16.7599 23.391 16.546C23.2951 16.3578 23.1422 16.2049 22.954 16.109C22.7401 16 22.4601 16 21.9 16Z" stroke="#111111" stroke-width="1.5" stroke-linecap="round" stroke-linejoin="round"/>
<path d="M10.9 16H7.1C6.53995 16 6.25992 16 6.04601 16.109C5.85785 16.2049 5.70487 16.3578 5.60899 16.546C5.5 16.7599 5.5 17.0399 5.5 17.6V21.4C5.5 21.9601 5.5 22.2401 5.60899 22.454C5.70487 22.6422 5.85785 22.7951 6.04601 22.891C6.25992 23 6.53995 23 7.1 23H10.9C11.4601 23 11.7401 23 11.954 22.891C12.1422 22.7951 12.2951 22.6422 12.391 22.454C12.5 22.2401 12.5 21.9601 12.5 21.4V17.6C12.5 17.0399 12.5 16.7599 12.391 16.546C12.2951 16.3578 12.1422 16.2049 11.954 16.109C11.7401 16 11.4601 16 10.9 16Z" stroke="#111111" stroke-width="1.5" stroke-linecap="round" stroke-linejoin="round"/>
</svg>
