<svg width="29" height="28" viewBox="0 0 29 28" fill="none" xmlns="http://www.w3.org/2000/svg">
<path d="M8.36774 12.8571H12.4559M10.4118 10.5714V15.1429M17.5661 14H17.5764M20.6323 11.7143H20.6425M12.9148 6H16.0852C18.768 6 20.1094 6 21.1622 6.56849C22.0892 7.06903 22.8595 7.87096 23.372 8.86925C23.9541 10.0031 24.0497 11.4992 24.2408 14.4915L24.4923 18.428C24.6156 20.3582 23.2485 22 21.5179 22C20.6329 22 19.7937 21.5604 19.2271 20.8002L18.8437 20.2857C18.493 19.8151 18.3176 19.5798 18.1179 19.3897C17.6993 18.9911 17.1926 18.7256 16.6508 18.6212C16.3923 18.5714 16.1184 18.5714 15.5705 18.5714H13.4295C12.8816 18.5714 12.6077 18.5714 12.3492 18.6212C11.8074 18.7256 11.3007 18.9911 10.8821 19.3897C10.6824 19.5798 10.507 19.8151 10.1563 20.2857L9.77288 20.8002C9.20633 21.5604 8.36707 22 7.48209 22C5.75155 22 4.38444 20.3582 4.50773 18.428L4.75919 14.4915C4.95033 11.4992 5.0459 10.0031 5.62802 8.86925C6.14055 7.87096 6.91076 7.06903 7.83776 6.56849C8.89064 6 10.232 6 12.9148 6Z" stroke="#111111" stroke-width="1.5" stroke-linecap="round" stroke-linejoin="round"/>
</svg>
