<svg width="29" height="28" viewBox="0 0 29 28" fill="none" xmlns="http://www.w3.org/2000/svg">
<path d="M9.5 13C8.57003 13 8.10504 13 7.72354 13.1022C6.68827 13.3796 5.87962 14.1883 5.60222 15.2235C5.5 15.605 5.5 16.07 5.5 17V18.2C5.5 19.8802 5.5 20.7202 5.82698 21.362C6.1146 21.9265 6.57354 22.3854 7.13803 22.673C7.77976 23 8.61984 23 10.3 23H18.7C20.3802 23 21.2202 23 21.862 22.673C22.4265 22.3854 22.8854 21.9265 23.173 21.362C23.5 20.7202 23.5 19.8802 23.5 18.2V17C23.5 16.07 23.5 15.605 23.3978 15.2235C23.1204 14.1883 22.3117 13.3796 21.2765 13.1022C20.895 13 20.43 13 19.5 13M18.5 9L14.5 5M14.5 5L10.5 9M14.5 5V17" stroke="#111111" stroke-width="1.5" stroke-linecap="round" stroke-linejoin="round"/>
</svg>
