<svg width="29" height="28" viewBox="0 0 29 28" fill="none" xmlns="http://www.w3.org/2000/svg">
<path d="M24.5 23V21C24.5 19.1362 23.2252 17.5701 21.5 17.126M18 5.29076C19.4659 5.88415 20.5 7.32131 20.5 9C20.5 10.6787 19.4659 12.1159 18 12.7092M19.5 23C19.5 21.1362 19.5 20.2044 19.1955 19.4693C18.7895 18.4892 18.0108 17.7105 17.0307 17.3045C16.2956 17 15.3638 17 13.5 17H10.5C8.63623 17 7.70435 17 6.96927 17.3045C5.98915 17.7105 5.21046 18.4892 4.80448 19.4693C4.5 20.2044 4.5 21.1362 4.5 23M16 9C16 11.2091 14.2091 13 12 13C9.79086 13 8 11.2091 8 9C8 6.79086 9.79086 5 12 5C14.2091 5 16 6.79086 16 9Z" stroke="#111111" stroke-width="1.5" stroke-linecap="round" stroke-linejoin="round"/>
</svg>
