<svg xmlns="http://www.w3.org/2000/svg" width="28" height="28" fill="none"><path fill="#F0002E" stroke="#F0002E" stroke-linecap="round" stroke-linejoin="round" stroke-width="1.5" d="M5 9.629c0-1.62 0-2.43.327-3.05a2.949 2.949 0 0 1 1.311-1.264C7.28 5 8.12 5 9.8 5h8.4c1.68 0 2.52 0 3.162.315.565.278 1.023.72 1.311 1.265C23 7.198 23 8.008 23 9.629v5.496c0 1.348 0 2.022-.228 2.553a2.948 2.948 0 0 1-1.624 1.566c-.551.22-1.25.22-2.648.22-.489 0-.733 0-.96.052a2.03 2.03 0 0 0-.822.396c-.178.144-.325.332-.618.71l-1.46 1.877c-.217.279-.326.418-.459.468a.517.517 0 0 1-.362 0c-.133-.05-.242-.19-.459-.468L11.9 20.62c-.293-.377-.44-.565-.619-.709a2.03 2.03 0 0 0-.822-.396c-.226-.052-.47-.052-.959-.052-1.398 0-2.097 0-2.648-.22a2.949 2.949 0 0 1-1.624-1.566C5 17.148 5 16.474 5 15.125V9.629Z"/><path stroke="#fff" stroke-linecap="round" stroke-linejoin="round" stroke-width="1.5" d="M9.5 12.5h.01m4.49 0h.01m4.49 0h.01m-8.51 0a.5.5 0 1 1-1 0 .5.5 0 0 1 1 0Zm4.5 0a.5.5 0 1 1-1 0 .5.5 0 0 1 1 0Zm4.5 0a.5.5 0 1 1-1 0 .5.5 0 0 1 1 0Z"/></svg>