<svg width="29" height="28" viewBox="0 0 29 28" fill="none" xmlns="http://www.w3.org/2000/svg">
<path d="M5.5 9.62857C5.5 8.00842 5.5 7.19834 5.82698 6.57953C6.1146 6.0352 6.57354 5.59265 7.13803 5.3153C7.77976 5 8.61984 5 10.3 5H18.7C20.3802 5 21.2202 5 21.862 5.3153C22.4265 5.59265 22.8854 6.0352 23.173 6.57953C23.5 7.19834 23.5 8.00842 23.5 9.62857V15.125C23.5 16.4729 23.5 17.1469 23.2716 17.6785C22.9672 18.3873 22.3831 18.9505 21.6481 19.2441C21.0967 19.4643 20.3978 19.4643 19 19.4643C18.5114 19.4643 18.2671 19.4643 18.0405 19.5159C17.7383 19.5847 17.4569 19.7204 17.2185 19.9122C17.0397 20.0561 16.8931 20.2445 16.6 20.6214L15.14 22.4986C14.9229 22.7777 14.8143 22.9173 14.6812 22.9672C14.5647 23.0109 14.4353 23.0109 14.3188 22.9672C14.1857 22.9173 14.0771 22.7777 13.86 22.4986L12.4 20.6214C12.1069 20.2445 11.9603 20.0561 11.7815 19.9122C11.5431 19.7204 11.2617 19.5847 10.9595 19.5159C10.7329 19.4643 10.4886 19.4643 10 19.4643C8.60218 19.4643 7.90326 19.4643 7.35195 19.2441C6.61687 18.9505 6.03284 18.3873 5.72836 17.6785C5.5 17.1469 5.5 16.4729 5.5 15.125V9.62857Z" stroke="#111111" stroke-width="1.5" stroke-linecap="round" stroke-linejoin="round"/>
<path d="M10 12.5H10.01M14.5 12.5H14.51M19 12.5H19.01M10.5 12.5C10.5 12.7761 10.2761 13 10 13C9.72386 13 9.5 12.7761 9.5 12.5C9.5 12.2239 9.72386 12 10 12C10.2761 12 10.5 12.2239 10.5 12.5ZM15 12.5C15 12.7761 14.7761 13 14.5 13C14.2239 13 14 12.7761 14 12.5C14 12.2239 14.2239 12 14.5 12C14.7761 12 15 12.2239 15 12.5ZM19.5 12.5C19.5 12.7761 19.2761 13 19 13C18.7239 13 18.5 12.7761 18.5 12.5C18.5 12.2239 18.7239 12 19 12C19.2761 12 19.5 12.2239 19.5 12.5Z" stroke="#111111" stroke-width="1.5" stroke-linecap="round" stroke-linejoin="round"/>
</svg>
